<svg width="980" height="551" xmlns="http://www.w3.org/2000/svg" xmlns:xlink="http://www.w3.org/1999/xlink">
<path fill="#ff595e" d="M 126.70 262.40 Q 126.70 262.40 130.61 261.40 134.52 260.41 139.93 260.41 145.35 260.41 151.11 260.41 156.87 260.41 163.07 260.41 169.28 260.41 176.12 260.41 182.97 260.41 190.09 260.41 197.20 260.41 203.83 260.41 210.47 260.41 215.99 260.41 221.51 260.41 225.21 260.41 228.91 260.41 231.69 260.41 234.46 260.41 236.94 261.40 239.41 262.40 239.41 262.40 239.41 262.41 239.41 262.41 239.41 262.42 236.94 263.41 234.46 264.41 231.69 264.41 228.91 264.41 225.21 264.41 221.51 264.41 215.99 264.41 210.47 264.41 203.83 264.41 197.20 264.41 190.09 264.41 182.97 264.41 176.12 264.41 169.28 264.41 163.07 264.41 156.87 264.41 151.11 264.41 145.35 264.41 139.93 264.41 134.52 264.41 130.61 263.41 126.70 262.42 126.70 262.41 Z" data-drauu_index="0"></path>
</svg>