<svg width="980" height="551" xmlns="http://www.w3.org/2000/svg" xmlns:xlink="http://www.w3.org/1999/xlink">
<path fill="#ff595e" d="M 348.50 81.97 Q 348.50 81.97 347.09 82.93 345.68 83.88 344.68 83.92 343.68 83.96 342.10 83.96 340.51 83.96 339.08 83.96 337.64 83.96 336.55 83.96 335.45 83.96 335.18 83.96 334.90 83.96 334.66 83.93 334.42 83.90 334.20 83.82 333.97 83.73 333.77 83.59 333.57 83.46 333.41 83.28 333.25 83.10 333.14 82.88 333.03 82.67 332.97 82.43 332.92 82.20 332.92 81.96 332.92 81.72 332.97 81.48 333.03 81.25 333.14 81.04 333.26 80.82 333.41 80.64 333.57 80.46 333.77 80.33 333.97 80.19 334.20 80.10 334.42 80.02 334.66 79.99 334.90 79.96 335.80 80.64 336.69 81.32 337.25 82.37 337.81 83.41 338.31 84.39 338.80 85.38 339.02 86.98 339.24 88.58 339.26 90.70 339.28 92.81 339.48 93.97 339.67 95.13 339.77 96.37 339.86 97.61 339.90 98.75 339.94 99.88 340.14 101.02 340.35 102.16 340.45 103.39 340.55 104.62 340.88 106.00 341.21 107.38 341.62 108.68 342.02 109.99 342.40 111.11 342.78 112.22 343.06 113.30 343.35 114.38 343.59 116.14 343.83 117.91 343.98 119.64 344.13 121.36 344.44 122.71 344.74 124.05 345.13 125.38 345.52 126.71 345.91 127.70 346.29 128.70 346.30 130.15 346.30 131.60 346.30 132.78 346.30 133.96 346.64 135.05 346.97 136.15 346.99 137.30 347.00 138.45 347.00 140.31 347.00 142.16 347.00 143.38 347.00 144.60 347.00 145.72 347.00 146.85 347.00 147.93 347.00 149.01 347.18 150.64 347.36 152.27 347.50 153.47 347.64 154.67 347.67 155.70 347.70 156.72 347.67 156.96 347.65 157.20 347.56 157.43 347.48 157.65 347.34 157.85 347.21 158.05 347.03 158.21 346.85 158.38 346.64 158.49 346.43 158.60 346.19 158.66 345.96 158.72 345.72 158.73 345.48 158.73 345.24 158.67 345.01 158.62 344.79 158.51 344.58 158.40 344.40 158.24 344.22 158.08 344.08 157.89 343.94 157.69 343.85 157.46 343.76 157.24 343.73 157.00 343.70 156.76 344.58 155.57 345.47 154.38 346.49 153.70 347.52 153.02 349.21 152.93 350.91 152.84 352.62 152.65 354.34 152.45 356.07 152.31 357.80 152.17 359.27 152.20 360.74 152.23 362.32 153.16 363.90 154.10 363.90 154.11 363.90 154.11 363.90 154.12 363.90 154.12 362.34 155.07 360.78 156.02 359.39 156.09 358.00 156.16 356.57 156.27 355.15 156.37 353.07 156.60 350.99 156.83 349.56 156.71 348.12 156.58 347.03 157.36 345.93 158.13 346.81 157.43 347.70 156.72 347.67 156.96 347.65 157.20 347.56 157.43 347.48 157.65 347.34 157.85 347.21 158.05 347.03 158.21 346.85 158.38 346.64 158.49 346.43 158.60 346.19 158.66 345.96 158.72 345.72 158.73 345.48 158.73 345.24 158.67 345.01 158.62 344.79 158.51 344.58 158.40 344.40 158.24 344.22 158.08 344.08 157.89 343.94 157.69 343.85 157.47 343.76 157.24 343.73 157.00 343.70 156.76 343.69 156.23 343.68 155.70 343.56 154.39 343.44 153.08 343.22 151.05 343.00 149.01 343.00 147.93 343.00 146.85 343.00 145.72 343.00 144.60 343.00 142.40 343.00 140.21 343.30 138.77 343.59 137.34 342.95 135.65 342.30 133.96 342.30 132.78 342.30 131.60 342.35 130.31 342.41 129.02 341.96 127.84 341.51 126.65 341.15 125.64 340.79 124.63 340.47 123.11 340.15 121.60 340.03 120.19 339.92 118.78 339.66 116.85 339.39 114.92 339.71 113.74 340.03 112.55 339.03 111.47 338.03 110.38 337.57 108.73 337.11 107.09 336.84 106.02 336.57 104.95 336.48 103.89 336.40 102.83 336.17 101.43 335.94 100.02 335.91 98.96 335.87 97.91 335.79 96.83 335.72 95.75 335.50 94.29 335.28 92.84 335.26 90.83 335.24 88.81 335.58 87.74 335.91 86.67 335.20 85.73 334.48 84.79 333.83 83.75 333.17 82.71 334.04 83.34 334.90 83.96 334.66 83.93 334.42 83.90 334.20 83.82 333.97 83.73 333.77 83.59 333.57 83.46 333.41 83.28 333.26 83.10 333.14 82.88 333.03 82.67 332.97 82.43 332.92 82.20 332.92 81.96 332.92 81.72 332.97 81.48 333.03 81.25 333.14 81.04 333.25 80.82 333.41 80.64 333.57 80.46 333.77 80.33 333.97 80.19 334.20 80.10 334.42 80.02 334.66 79.99 334.90 79.96 335.18 79.96 335.45 79.96 336.55 79.96 337.64 79.96 339.08 79.96 340.51 79.96 342.10 79.96 343.68 79.96 344.68 80.00 345.68 80.03 347.09 80.99 348.50 81.95 348.50 81.96 Z" data-drauu_index="1"></path><line fill="transparent" stroke="#ffca3a" stroke-width="4" stroke-linecap="round" x1="359.01" y1="184.93" x2="911.71" y2="180.73" data-drauu_index="3"></line><line fill="transparent" stroke="#ffca3a" stroke-width="4" stroke-linecap="round" x1="352.01" y1="211.55" x2="915.91" y2="210.15" data-drauu_index="4"></line>
</svg>